<?xml version="1.0" encoding="UTF-8" standalone="no"?>
<!-- Created with Inkscape (http://www.inkscape.org/) -->

<svg
   xmlns:dc="http://purl.org/dc/elements/1.1/"
   xmlns:cc="http://creativecommons.org/ns#"
   xmlns:rdf="http://www.w3.org/1999/02/22-rdf-syntax-ns#"
   xmlns:svg="http://www.w3.org/2000/svg"
   xmlns="http://www.w3.org/2000/svg"
   xmlns:sodipodi="http://sodipodi.sourceforge.net/DTD/sodipodi-0.dtd"
   xmlns:inkscape="http://www.inkscape.org/namespaces/inkscape"
   width="210mm"
   height="297mm"
   viewBox="0 0 210 297"
   version="1.1"
   id="svg8"
   inkscape:version="0.92.4 5da689c313, 2019-01-14"
   sodipodi:docname="logo.svg">
  <defs
     id="defs2">
	
	
	
</defs>
  <sodipodi:namedview
     id="base"
     pagecolor="#ffffff"
     bordercolor="#666666"
     borderopacity="1.0"
     inkscape:pageopacity="0.0"
     inkscape:pageshadow="2"
     inkscape:zoom="0.35"
     inkscape:cx="7.448847"
     inkscape:cy="827.6218"
     inkscape:document-units="mm"
     inkscape:current-layer="layer1"
     showgrid="false"
     inkscape:window-width="1906"
     inkscape:window-height="1036"
     inkscape:window-x="1926"
     inkscape:window-y="36"
     inkscape:window-maximized="1" />
  <metadata
     id="metadata5">
    <rdf:RDF>
      <cc:Work
         rdf:about="">
        <dc:format>image/svg+xml</dc:format>
        <dc:type
           rdf:resource="http://purl.org/dc/dcmitype/StillImage" />
        <dc:title></dc:title>
      </cc:Work>
    </rdf:RDF>
  </metadata>
  <g
     inkscape:label="Layer 1"
     inkscape:groupmode="layer"
     id="layer1">
    <g
       id="g4694"
       transform="matrix(0.26458333,0,0,0.26458333,41.07894,80.844258)">
</g>
    <g
       id="g4696"
       transform="matrix(0.26458333,0,0,0.26458333,41.07894,80.844258)">
</g>
    <g
       id="g4698"
       transform="matrix(0.26458333,0,0,0.26458333,41.07894,80.844258)">
</g>
    <g
       id="g4700"
       transform="matrix(0.26458333,0,0,0.26458333,41.07894,80.844258)">
</g>
    <g
       id="g4702"
       transform="matrix(0.26458333,0,0,0.26458333,41.07894,80.844258)">
</g>
    <g
       id="g4704"
       transform="matrix(0.26458333,0,0,0.26458333,41.07894,80.844258)">
</g>
    <g
       id="g4706"
       transform="matrix(0.26458333,0,0,0.26458333,41.07894,80.844258)">
</g>
    <g
       id="g4708"
       transform="matrix(0.26458333,0,0,0.26458333,41.07894,80.844258)">
</g>
    <g
       id="g4710"
       transform="matrix(0.26458333,0,0,0.26458333,41.07894,80.844258)">
</g>
    <g
       id="g4712"
       transform="matrix(0.26458333,0,0,0.26458333,41.07894,80.844258)">
</g>
    <g
       id="g4714"
       transform="matrix(0.26458333,0,0,0.26458333,41.07894,80.844258)">
</g>
    <g
       id="g4716"
       transform="matrix(0.26458333,0,0,0.26458333,41.07894,80.844258)">
</g>
    <g
       id="g4718"
       transform="matrix(0.26458333,0,0,0.26458333,41.07894,80.844258)">
</g>
    <g
       id="g4720"
       transform="matrix(0.26458333,0,0,0.26458333,41.07894,80.844258)">
</g>
    <g
       id="g4722"
       transform="matrix(0.26458333,0,0,0.26458333,41.07894,80.844258)">
</g>
    <g
       id="g5105"
       inkscape:export-xdpi="174.192"
       inkscape:export-ydpi="174.192">
      <polygon
         transform="matrix(0.26458333,0,0,0.26458333,41.07894,80.844258)"
         id="polygon4670"
         points="256.229,9.998 34.227,132.999 34.227,379.001 256.229,502.003 478.231,379.001 478.231,132.999 "
         style="fill:#ffb954" />
      <polygon
         transform="matrix(0.26458333,0,0,0.26458333,41.07894,80.844258)"
         id="polygon4672"
         points="256,256.008 34.227,133.134 34.227,379.009 256,501.884 "
         style="fill:#ffc66c" />
      <polygon
         transform="matrix(0.26458333,0,0,0.26458333,41.07894,80.844258)"
         id="polygon4674"
         points="478.116,132.999 256.115,9.998 34.113,132.999 256.115,256 "
         style="fill:#feda9b" />
      <polygon
         transform="matrix(0.26458333,0,0,0.26458333,41.07894,80.844258)"
         style="fill:#ffffff"
         points="388.663,84.03 167.496,206.568 115.636,177.929 336.745,55.424 "
         id="polygon4676" />
      <polygon
         transform="matrix(0.26458333,0,0,0.26458333,41.07894,80.844258)"
         style="fill:#ffffff"
         points="115.636,177.929 115.636,241.781 167.496,270.274 167.496,206.568 "
         id="polygon4678" />
      <path
         style="stroke-width:0.26458332"
         id="path4684"
         d="m 170.19561,116.03358 c 0,-0.96176 -0.52203,-1.84759 -1.3634,-2.31378 L 110.09418,81.175781 c -0.79746,-0.442119 -1.76636,-0.442119 -2.56381,0 L 48.792338,113.7198 c -0.841375,0.46619 -1.363398,1.35202 -1.363398,2.31378 v 65.08802 c 0,0.96177 0.522023,1.84759 1.363398,2.31379 l 58.738032,32.54401 c 0.39872,0.22093 0.84031,0.33152 1.2819,0.33152 0.44159,0 0.88318,-0.11059 1.28191,-0.33152 l 58.73803,-32.54401 c 0.84137,-0.4662 1.3634,-1.35202 1.3634,-2.31379 v -21.44897 c 0,-1.46077 -1.18428,-2.64531 -2.64531,-2.64531 -1.46103,0 -2.6453,1.18454 -2.6453,2.64531 v 19.89058 l -53.44742,29.61296 v -59.04018 l 53.44768,-29.61296 v 16.40099 c 0,1.46103 1.18428,2.6453 2.64531,2.6453 1.46102,0 2.6453,-1.18427 2.6453,-2.6453 z M 108.81227,145.55367 90.758958,135.55109 144.0389,106.031 l 18.05331,10.00258 z m -34.492668,-13.06275 8.430419,4.67096 v 10.72091 l -8.430419,-4.63206 z m 34.492668,-45.977435 16.07,8.903758 -16.56345,9.177077 c -1.27793,0.70776 -1.7399,2.31801 -1.03187,3.59568 0.48313,0.87181 1.38562,1.36393 2.31616,1.36393 0.43365,0 0.87339,-0.10689 1.27953,-0.33205 l 19.45746,-10.780449 8.24044,4.565649 -53.279407,29.52009 -8.240448,-4.56565 14.25919,-7.90046 c 1.277937,-0.70802 1.7399,-2.31801 1.031875,-3.59568 -0.707761,-1.27821 -2.318279,-1.73964 -3.595688,-1.03188 l -17.153466,9.50383 -16.070262,-8.90349 z m -56.092986,34.009805 16.30971,9.03658 v 15.25587 c 0,0.96494 0.525727,1.85341 1.3716,2.31828 l 13.720762,7.53878 c 0.39714,0.21801 0.835554,0.32676 1.273704,0.32676 0.466196,0 0.931863,-0.1233 1.346729,-0.36883 0.804598,-0.47625 1.298575,-1.34144 1.298575,-2.27648 v -12.26132 l 18.126336,10.04306 v 59.04018 L 52.719284,179.56321 Z"
         inkscape:connector-curvature="0" />
      <path
         style="stroke-width:0.26458332"
         id="path4686"
         d="m 167.55004,145.91773 c -0.69559,0 -1.37822,0.28311 -1.87008,0.77497 -0.49212,0.49212 -0.77496,1.17448 -0.77496,1.87007 0,0.69559 0.2831,1.37822 0.77496,1.86981 0.49213,0.49213 1.17449,0.77523 1.87008,0.77523 0.69559,0 1.37821,-0.2831 1.87007,-0.77523 0.49213,-0.49186 0.77497,-1.17422 0.77497,-1.86981 0,-0.69559 -0.28311,-1.37821 -0.77497,-1.87007 -0.49186,-0.49213 -1.17448,-0.77497 -1.87007,-0.77497 z"
         inkscape:connector-curvature="0" />
      <path
         style="stroke-width:0.26458332"
         id="path4688"
         d="m 99.827816,114.96889 c 0.695594,0 1.378214,-0.2831 1.870074,-0.77496 0.49213,-0.49213 0.77497,-1.17449 0.77497,-1.87008 0,-0.69559 -0.28311,-1.37821 -0.77497,-1.87007 -0.49186,-0.49186 -1.17448,-0.77497 -1.870074,-0.77497 -0.698235,0 -1.38086,0.28311 -1.87272,0.77497 -0.491861,0.49186 -0.774965,1.17448 -0.774965,1.87007 0,0.69559 0.283104,1.37822 0.774965,1.87008 0.49186,0.49186 1.17422,0.77496 1.87272,0.77496 z"
         inkscape:connector-curvature="0" />
      <path
         style="stroke-width:0.26458332"
         id="path4690"
         d="m 70.004777,175.83285 -7.721864,-4.2426 c -1.27979,-0.70273 -2.888457,-0.23574 -3.592248,1.04458 -0.703527,1.28058 -0.236009,2.88846 1.044575,3.59225 l 7.721864,4.24259 c 0.404284,0.22199 0.840581,0.32729 1.271588,0.32729 0.933714,0 1.839118,-0.49583 2.32066,-1.37213 0.703263,-1.28032 0.235479,-2.88819 -1.044575,-3.59198 z"
         inkscape:connector-curvature="0" />
      <g
         id="g4879"
         transform="matrix(0.18761652,-0.12318671,0.12318671,0.18761652,8.0667562,211.59511)"
         inkscape:transform-center-x="1.4388154"
         inkscape:transform-center-y="-1.5446477">
        <g
           transform="translate(449.83355,-27.226768)"
           id="g4782">
          <path
             style="fill:#a9ba5a"
             inkscape:connector-curvature="0"
             d="m 116.88,193.514 c 41.665,-4.872 49.918,-39.748 49.918,-39.748 -44.327,0.559 -57.08,23.322 -57.08,23.322 22.017,-46.351 6.869,-75.716 6.869,-75.716 0,0 -26.703,19.462 -27.794,70.764 0,0 -1.198,-26.064 -40.574,-46.431 0,0 -8.253,34.876 26.81,57.905 0,0 -22.763,-12.752 -40.015,-2.103 0,0 16.799,22.39 40.201,16.879 0,0 -15.601,3.674 -20.553,24.6 0,0 24.413,5.777 36.34,-13.498 2.023,22.576 26.437,28.354 26.437,28.354 4.952,-20.926 -7.348,-31.202 -7.348,-31.202 18.45,15.415 43.502,2.928 43.502,2.928 -10.649,-17.252 -36.713,-16.054 -36.713,-16.054 z"
             id="path4778" />
          <path
             style="fill:#4c241d"
             inkscape:connector-curvature="0"
             d="m 117.442,241.842 c -0.305,0 -0.617,-0.035 -0.926,-0.107 -0.973,-0.23 -21.102,-5.209 -27.629,-23.309 -13.949,13.248 -34.172,8.682 -35.148,8.453 -1.031,-0.244 -1.926,-0.889 -2.48,-1.791 -0.559,-0.904 -0.734,-1.99 -0.488,-3.023 2.145,-9.074 6.133,-15.248 10.223,-19.412 -17.324,-3.227 -28.59,-17.955 -29.18,-18.744 -0.676,-0.898 -0.941,-2.039 -0.73,-3.145 0.207,-1.104 0.871,-2.068 1.828,-2.66 8.074,-4.986 17.066,-5.477 24.793,-4.352 -8.059,-9.475 -11.625,-19.309 -13.152,-26.945 -2.461,-12.312 -0.316,-21.633 -0.223,-22.023 0.281,-1.197 1.102,-2.199 2.223,-2.713 1.113,-0.516 2.414,-0.484 3.504,0.082 19.961,10.324 30.602,22.135 36.273,31.668 5.957,-39.229 26.891,-54.945 27.902,-55.682 0.949,-0.688 2.148,-0.93 3.277,-0.66 1.137,0.27 2.098,1.021 2.633,2.059 0.574,1.113 12.242,24.543 -0.012,62.281 9.344,-5.979 24.152,-11.77 46.617,-12.053 1.184,0.049 2.406,0.539 3.172,1.498 0.77,0.963 1.055,2.225 0.77,3.424 -0.09,0.391 -2.352,9.682 -10.07,19.584 -4.789,6.143 -12.383,13.338 -23.836,18.193 7.422,2.457 15.23,6.922 20.215,15.002 0.59,0.957 0.754,2.117 0.445,3.199 -0.309,1.08 -1.059,1.98 -2.062,2.482 -0.883,0.438 -17.559,8.555 -34.484,3.68 1.789,5.555 2.582,12.861 0.434,21.936 -0.436,1.839 -2.077,3.078 -3.889,3.078 z M 91.004,205.488 c 0.305,0 0.613,0.035 0.922,0.107 1.676,0.396 2.91,1.82 3.062,3.535 1.285,14.328 12.984,20.926 19.344,23.475 1.926,-15.316 -6.637,-22.754 -6.805,-22.896 -0.004,0 -0.004,0 -0.004,0 -1.695,-1.418 -1.918,-3.939 -0.504,-5.635 1.418,-1.695 3.938,-1.922 5.637,-0.506 11.812,9.879 27.031,6.73 34.539,4.234 -10.562,-11.037 -29.898,-10.299 -30.133,-10.293 -2.129,0.043 -3.996,-1.523 -4.172,-3.672 -0.172,-2.146 1.383,-4.047 3.523,-4.297 29.219,-3.416 40.742,-22.275 44.699,-31.57 -36.539,2.186 -47.449,20.289 -47.918,21.096 -1.078,1.863 -3.441,2.549 -5.332,1.549 -1.898,-0.998 -2.68,-3.305 -1.758,-5.244 15.703,-33.062 11.816,-56.992 8.84,-66.99 -7.133,7.652 -21.379,27.426 -22.152,63.84 -0.047,2.158 -1.793,3.889 -3.949,3.916 -2.359,0.041 -3.949,-1.662 -4.047,-3.816 -0.055,-0.904 -1.699,-21.979 -33.383,-40.309 -0.629,10.074 1.219,32.104 25.809,48.254 1.801,1.182 2.34,3.572 1.223,5.414 -1.117,1.842 -3.5,2.465 -5.367,1.422 -0.191,-0.104 -17.18,-9.389 -31.535,-4.307 5.625,5.594 17.832,15.213 32.754,11.699 2.137,-0.52 4.305,0.824 4.812,2.977 0.504,2.15 -0.828,4.303 -2.977,4.809 -0.48,0.123 -11.262,3.016 -16.348,17.418 6.816,0.572 20.242,-0.08 27.816,-12.314 0.744,-1.197 2.041,-1.896 3.404,-1.896 z"
             id="path4780" />
        </g>
        <path
           style="fill:#4c241d"
           inkscape:connector-curvature="0"
           d="m 531.75955,224.62423 c -0.305,0 -0.617,-0.035 -0.926,-0.107 -2.148,-0.51 -3.48,-2.664 -2.969,-4.814 l 9.082,-38.363 c 0.504,-2.148 2.664,-3.477 4.812,-2.971 2.148,0.51 3.48,2.664 2.969,4.814 l -9.082,38.363 c -0.433,1.84 -2.074,3.078 -3.886,3.078 z"
           id="path4784" />
        <g
           transform="translate(449.83355,-27.226768)"
           id="g4790">
          <path
             style="fill:#ffffff"
             inkscape:connector-curvature="0"
             d="m 212.373,145.568 h 23.077 v 55.385 h -23.077 z"
             transform="matrix(-0.707,-0.707,0.707,-0.707,259.727,454.104)"
             id="path4786" />
          <path
             style="fill:#4c241d"
             inkscape:connector-curvature="0"
             d="m 212.489,205.002 c -1.062,0 -2.078,-0.422 -2.828,-1.172 l -16.316,-16.318 c -1.562,-1.562 -1.562,-4.094 0,-5.656 l 39.16,-39.162 c 1.562,-1.562 4.094,-1.562 5.656,0 l 16.32,16.316 c 0.75,0.75 1.172,1.768 1.172,2.828 0,1.06 -0.422,2.078 -1.172,2.828 l -39.164,39.164 c -0.75,0.75 -1.766,1.172 -2.828,1.172 z m -10.661,-20.319 10.66,10.662 33.508,-33.508 -10.664,-10.66 z"
             id="path4788" />
        </g>
        <g
           transform="translate(449.83355,-27.226768)"
           id="g4796">
          <path
             style="fill:#ffffff"
             inkscape:connector-curvature="0"
             d="M 196.989,161.076 V 84.338 h -28 v 76.185 c -21.768,5.724 -37.846,25.481 -37.846,49.046 0,2.27 0.201,4.488 0.489,6.678 l 17.423,-8.712 c 8.902,-4.451 19.506,-3.791 27.787,1.73 8.761,5.841 20.074,6.216 29.203,0.97 l 9.855,-5.664 c 4.963,-2.852 10.567,-3.984 16.06,-3.538 -3.212,-18.965 -16.935,-34.355 -34.971,-39.957 z"
             id="path4792" />
          <path
             style="fill:#4c241d"
             inkscape:connector-curvature="0"
             d="m 131.633,220.248 c -0.645,0 -1.289,-0.156 -1.875,-0.467 -1.145,-0.605 -1.922,-1.729 -2.09,-3.01 -0.359,-2.725 -0.527,-5.012 -0.527,-7.203 0,-23.795 15.41,-44.766 37.848,-52.039 V 84.338 c 0,-2.209 1.789,-4 4,-4 h 28 c 2.211,0 4,1.791 4,4 v 73.879 c 18.109,6.752 31.672,22.998 34.918,42.148 0.203,1.217 -0.164,2.461 -0.996,3.371 -0.832,0.908 -2.008,1.402 -3.273,1.283 -4.852,-0.402 -9.617,0.65 -13.746,3.021 l -9.855,5.662 c -10.516,6.041 -23.316,5.621 -33.414,-1.109 -7.059,-4.709 -16.172,-5.279 -23.777,-1.48 l -17.422,8.713 c -0.564,0.281 -1.178,0.422 -1.791,0.422 z m 41.356,-131.91 v 72.186 c 0,1.818 -1.227,3.406 -2.984,3.869 -20.527,5.396 -34.863,23.973 -34.863,45.176 0,0.15 0,0.301 0.004,0.451 l 12.121,-6.062 c 10.16,-5.076 22.344,-4.322 31.793,1.98 7.547,5.033 17.125,5.355 24.992,0.828 l 9.855,-5.662 c 4.012,-2.305 8.453,-3.676 13.066,-4.057 -4.223,-15.102 -16.043,-27.451 -31.172,-32.15 -1.672,-0.52 -2.812,-2.068 -2.812,-3.82 V 88.338 Z"
             id="path4794" />
        </g>
        <g
           transform="translate(449.83355,-27.226768)"
           id="g4802">
          <path
             style="fill:#efefd2"
             inkscape:connector-curvature="0"
             d="m 215.9,204.571 -9.855,5.664 c -9.129,5.247 -20.442,4.871 -29.203,-0.97 -8.281,-5.521 -18.885,-6.181 -27.787,-1.73 l -17.423,8.712 c 3.277,24.875 24.51,44.091 50.28,44.091 28.039,0 50.769,-22.73 50.769,-50.769 0,-2.91 -0.251,-5.76 -0.721,-8.535 -5.493,-0.447 -11.097,0.685 -16.06,3.537 z"
             id="path4798" />
          <path
             style="fill:#4c241d"
             inkscape:connector-curvature="0"
             d="m 181.91,264.338 c -27.352,0 -50.672,-20.449 -54.242,-47.566 -0.223,-1.691 0.648,-3.338 2.176,-4.102 l 17.422,-8.713 c 10.16,-5.076 22.344,-4.322 31.793,1.98 7.547,5.033 17.125,5.355 24.992,0.828 l 9.855,-5.662 c 5.535,-3.18 11.895,-4.57 18.379,-4.057 1.824,0.146 3.316,1.516 3.621,3.32 0.512,3.043 0.773,6.139 0.773,9.201 0.001,30.2 -24.569,54.771 -54.769,54.771 z M 136.051,218.51 c 4.219,21.754 23.453,37.828 45.859,37.828 25.789,0 46.77,-20.98 46.77,-46.77 0,-1.527 -0.074,-3.066 -0.227,-4.602 -3.742,0.182 -7.344,1.223 -10.562,3.074 l -9.855,5.662 c -10.516,6.041 -23.316,5.621 -33.414,-1.109 -7.059,-4.709 -16.172,-5.279 -23.777,-1.48 z m 79.848,-13.938 h 0.039 z"
             id="path4800" />
        </g>
      </g>
    </g>
  </g>
</svg>
