<?xml version="1.0" encoding="UTF-8" standalone="no"?>
<!-- Created with Inkscape (http://www.inkscape.org/) -->

<svg
   xmlns:dc="http://purl.org/dc/elements/1.1/"
   xmlns:cc="http://creativecommons.org/ns#"
   xmlns:rdf="http://www.w3.org/1999/02/22-rdf-syntax-ns#"
   xmlns:svg="http://www.w3.org/2000/svg"
   xmlns="http://www.w3.org/2000/svg"
   xmlns:sodipodi="http://sodipodi.sourceforge.net/DTD/sodipodi-0.dtd"
   xmlns:inkscape="http://www.inkscape.org/namespaces/inkscape"
   width="210mm"
   height="297mm"
   viewBox="0 0 210 297"
   version="1.1"
   id="svg8"
   inkscape:version="0.92.4 5da689c313, 2019-01-14"
   sodipodi:docname="logo.svg">
  <defs
     id="defs2" />
  <sodipodi:namedview
     id="base"
     pagecolor="#ffffff"
     bordercolor="#666666"
     borderopacity="1.0"
     inkscape:pageopacity="0.0"
     inkscape:pageshadow="2"
     inkscape:zoom="0.35"
     inkscape:cx="30.167936"
     inkscape:cy="812.609"
     inkscape:document-units="mm"
     inkscape:current-layer="layer1"
     showgrid="false"
     inkscape:window-width="1906"
     inkscape:window-height="1036"
     inkscape:window-x="1926"
     inkscape:window-y="36"
     inkscape:window-maximized="1" />
  <metadata
     id="metadata5">
    <rdf:RDF>
      <cc:Work
         rdf:about="">
        <dc:format>image/svg+xml</dc:format>
        <dc:type
           rdf:resource="http://purl.org/dc/dcmitype/StillImage" />
        <dc:title />
      </cc:Work>
    </rdf:RDF>
  </metadata>
  <g
     inkscape:label="Layer 1"
     inkscape:groupmode="layer"
     id="layer1">
    <g
       id="g4694"
       transform="matrix(0.26458333,0,0,0.26458333,41.07894,80.844258)" />
    <g
       id="g4696"
       transform="matrix(0.26458333,0,0,0.26458333,41.07894,80.844258)" />
    <g
       id="g4698"
       transform="matrix(0.26458333,0,0,0.26458333,41.07894,80.844258)" />
    <g
       id="g4700"
       transform="matrix(0.26458333,0,0,0.26458333,41.07894,80.844258)" />
    <g
       id="g4702"
       transform="matrix(0.26458333,0,0,0.26458333,41.07894,80.844258)" />
    <g
       id="g4704"
       transform="matrix(0.26458333,0,0,0.26458333,41.07894,80.844258)" />
    <g
       id="g4706"
       transform="matrix(0.26458333,0,0,0.26458333,41.07894,80.844258)" />
    <g
       id="g4708"
       transform="matrix(0.26458333,0,0,0.26458333,41.07894,80.844258)" />
    <g
       id="g4710"
       transform="matrix(0.26458333,0,0,0.26458333,41.07894,80.844258)" />
    <g
       id="g4712"
       transform="matrix(0.26458333,0,0,0.26458333,41.07894,80.844258)" />
    <g
       id="g4714"
       transform="matrix(0.26458333,0,0,0.26458333,41.07894,80.844258)" />
    <g
       id="g4716"
       transform="matrix(0.26458333,0,0,0.26458333,41.07894,80.844258)" />
    <g
       id="g4718"
       transform="matrix(0.26458333,0,0,0.26458333,41.07894,80.844258)" />
    <g
       id="g4720"
       transform="matrix(0.26458333,0,0,0.26458333,41.07894,80.844258)" />
    <g
       id="g4722"
       transform="matrix(0.26458333,0,0,0.26458333,41.07894,80.844258)" />
    <g
       id="g1627"
       transform="matrix(1.3180802,0,0,1.3180802,-37.76478,-61.244694)">
      <polygon
         transform="matrix(0.26458333,0,0,0.26458333,41.07894,80.844258)"
         id="polygon4670"
         points="256.229,9.998 34.227,132.999 34.227,379.001 256.229,502.003 478.231,379.001 478.231,132.999 "
         style="fill:#ffb954" />
      <polygon
         transform="matrix(0.26458333,0,0,0.26458333,41.07894,80.844258)"
         id="polygon4672"
         points="34.227,379.009 256,501.884 256,256.008 34.227,133.134 "
         style="fill:#ffc66c" />
      <polygon
         transform="matrix(0.26458333,0,0,0.26458333,41.07894,80.844258)"
         id="polygon4674"
         points="34.113,132.999 256.115,256 478.116,132.999 256.115,9.998 "
         style="fill:#feda9b" />
      <polygon
         transform="matrix(0.26458333,0,0,0.26458333,41.07894,80.844258)"
         style="fill:#ffffff"
         points="115.636,177.929 336.745,55.424 388.663,84.03 167.496,206.568 "
         id="polygon4676" />
      <polygon
         transform="matrix(0.26458333,0,0,0.26458333,41.07894,80.844258)"
         style="fill:#ffffff"
         points="167.496,270.274 167.496,206.568 115.636,177.929 115.636,241.781 "
         id="polygon4678" />
      <path
         style="stroke-width:0.26458332"
         id="path4684"
         d="m 170.19561,116.03358 c 0,-0.96176 -0.52203,-1.84759 -1.3634,-2.31378 L 110.09418,81.175781 c -0.79746,-0.442119 -1.76636,-0.442119 -2.56381,0 L 48.792338,113.7198 c -0.841375,0.46619 -1.363398,1.35202 -1.363398,2.31378 v 65.08802 c 0,0.96177 0.522023,1.84759 1.363398,2.31379 l 58.738032,32.54401 c 0.39872,0.22093 0.84031,0.33152 1.2819,0.33152 0.44159,0 0.88318,-0.11059 1.28191,-0.33152 l 58.73803,-32.54401 c 0.84137,-0.4662 1.3634,-1.35202 1.3634,-2.31379 v -21.44897 c 0,-1.46077 -1.18428,-2.64531 -2.64531,-2.64531 -1.46103,0 -2.6453,1.18454 -2.6453,2.64531 v 19.89058 l -53.44742,29.61296 v -59.04018 l 53.44768,-29.61296 v 16.40099 c 0,1.46103 1.18428,2.6453 2.64531,2.6453 1.46102,0 2.6453,-1.18427 2.6453,-2.6453 z M 108.81227,145.55367 90.758958,135.55109 144.0389,106.031 l 18.05331,10.00258 z m -34.492668,-13.06275 8.430419,4.67096 v 10.72091 l -8.430419,-4.63206 z m 34.492668,-45.977435 16.07,8.903758 -16.56345,9.177077 c -1.27793,0.70776 -1.7399,2.31801 -1.03187,3.59568 0.48313,0.87181 1.38562,1.36393 2.31616,1.36393 0.43365,0 0.87339,-0.10689 1.27953,-0.33205 l 19.45746,-10.780449 8.24044,4.565649 -53.279407,29.52009 -8.240448,-4.56565 14.25919,-7.90046 c 1.277937,-0.70802 1.7399,-2.31801 1.031875,-3.59568 -0.707761,-1.27821 -2.318279,-1.73964 -3.595688,-1.03188 l -17.153466,9.50383 -16.070262,-8.90349 z m -56.092986,34.009805 16.30971,9.03658 v 15.25587 c 0,0.96494 0.525727,1.85341 1.3716,2.31828 l 13.720762,7.53878 c 0.39714,0.21801 0.835554,0.32676 1.273704,0.32676 0.466196,0 0.931863,-0.1233 1.346729,-0.36883 0.804598,-0.47625 1.298575,-1.34144 1.298575,-2.27648 v -12.26132 l 18.126336,10.04306 v 59.04018 L 52.719284,179.56321 Z"
         inkscape:connector-curvature="0" />
      <g
         id="g1601">
        <g
           id="g1498"
           transform="matrix(0.18341713,-0.12042944,0.12042944,0.18341713,91.906604,150.21143)">
          <path
             id="path1494"
             transform="matrix(-0.707,-0.707,0.707,-0.707,259.727,454.104)"
             d="m 212.373,145.568 h 23.077 v 55.385 h -23.077 z"
             inkscape:connector-curvature="0"
             style="fill:#ffffff" />
          <path
             id="path1496"
             d="m 212.489,205.002 c -1.062,0 -2.078,-0.422 -2.828,-1.172 l -16.316,-16.318 c -1.562,-1.562 -1.562,-4.094 0,-5.656 l 39.16,-39.162 c 1.562,-1.562 4.094,-1.562 5.656,0 l 16.32,16.316 c 0.75,0.75 1.172,1.768 1.172,2.828 0,1.06 -0.422,2.078 -1.172,2.828 l -39.164,39.164 c -0.75,0.75 -1.766,1.172 -2.828,1.172 z m -10.661,-20.319 10.66,10.662 33.508,-33.508 -10.664,-10.66 z"
             inkscape:connector-curvature="0"
             style="fill:#4c241d" />
        </g>
        <g
           transform="matrix(1.095289,0,0,1.095289,-199.49822,53.570325)"
           id="g1508">
          <g
             transform="matrix(0.18761652,-0.12318671,0.12318671,0.18761652,261.23056,87.195993)"
             id="g1504">
            <path
               style="fill:#a9ba5a"
               inkscape:connector-curvature="0"
               d="m 116.88,193.514 c 41.665,-4.872 49.918,-39.748 49.918,-39.748 -44.327,0.559 -57.08,23.322 -57.08,23.322 22.017,-46.351 6.869,-75.716 6.869,-75.716 0,0 -26.703,19.462 -27.794,70.764 0,0 -1.198,-26.064 -40.574,-46.431 0,0 -8.253,34.876 26.81,57.905 0,0 -22.763,-12.752 -40.015,-2.103 0,0 16.799,22.39 40.201,16.879 0,0 -15.601,3.674 -20.553,24.6 0,0 24.413,5.777 36.34,-13.498 2.023,22.576 26.437,28.354 26.437,28.354 4.952,-20.926 -7.348,-31.202 -7.348,-31.202 18.45,15.415 43.502,2.928 43.502,2.928 -10.649,-17.252 -36.713,-16.054 -36.713,-16.054 z"
               id="path1500" />
            <path
               style="fill:#4c241d"
               inkscape:connector-curvature="0"
               d="m 117.442,241.842 c -0.305,0 -0.617,-0.035 -0.926,-0.107 -0.973,-0.23 -21.102,-5.209 -27.629,-23.309 -13.949,13.248 -34.172,8.682 -35.148,8.453 -1.031,-0.244 -1.926,-0.889 -2.48,-1.791 -0.559,-0.904 -0.734,-1.99 -0.488,-3.023 2.145,-9.074 6.133,-15.248 10.223,-19.412 -17.324,-3.227 -28.59,-17.955 -29.18,-18.744 -0.676,-0.898 -0.941,-2.039 -0.73,-3.145 0.207,-1.104 0.871,-2.068 1.828,-2.66 8.074,-4.986 17.066,-5.477 24.793,-4.352 -8.059,-9.475 -11.625,-19.309 -13.152,-26.945 -2.461,-12.312 -0.316,-21.633 -0.223,-22.023 0.281,-1.197 1.102,-2.199 2.223,-2.713 1.113,-0.516 2.414,-0.484 3.504,0.082 19.961,10.324 30.602,22.135 36.273,31.668 5.957,-39.229 26.891,-54.945 27.902,-55.682 0.949,-0.688 2.148,-0.93 3.277,-0.66 1.137,0.27 2.098,1.021 2.633,2.059 0.574,1.113 12.242,24.543 -0.012,62.281 9.344,-5.979 24.152,-11.77 46.617,-12.053 1.184,0.049 2.406,0.539 3.172,1.498 0.77,0.963 1.055,2.225 0.77,3.424 -0.09,0.391 -2.352,9.682 -10.07,19.584 -4.789,6.143 -12.383,13.338 -23.836,18.193 7.422,2.457 15.23,6.922 20.215,15.002 0.59,0.957 0.754,2.117 0.445,3.199 -0.309,1.08 -1.059,1.98 -2.062,2.482 -0.883,0.438 -17.559,8.555 -34.484,3.68 1.789,5.555 2.582,12.861 0.434,21.936 -0.436,1.839 -2.077,3.078 -3.889,3.078 z M 91.004,205.488 c 0.305,0 0.613,0.035 0.922,0.107 1.676,0.396 2.91,1.82 3.062,3.535 1.285,14.328 12.984,20.926 19.344,23.475 1.926,-15.316 -6.637,-22.754 -6.805,-22.896 -0.004,0 -0.004,0 -0.004,0 -1.695,-1.418 -1.918,-3.939 -0.504,-5.635 1.418,-1.695 3.938,-1.922 5.637,-0.506 11.812,9.879 27.031,6.73 34.539,4.234 -10.562,-11.037 -29.898,-10.299 -30.133,-10.293 -2.129,0.043 -3.996,-1.523 -4.172,-3.672 -0.172,-2.146 1.383,-4.047 3.523,-4.297 29.219,-3.416 40.742,-22.275 44.699,-31.57 -36.539,2.186 -47.449,20.289 -47.918,21.096 -1.078,1.863 -3.441,2.549 -5.332,1.549 -1.898,-0.998 -2.68,-3.305 -1.758,-5.244 15.703,-33.062 11.816,-56.992 8.84,-66.99 -7.133,7.652 -21.379,27.426 -22.152,63.84 -0.047,2.158 -1.793,3.889 -3.949,3.916 -2.359,0.041 -3.949,-1.662 -4.047,-3.816 -0.055,-0.904 -1.699,-21.979 -33.383,-40.309 -0.629,10.074 1.219,32.104 25.809,48.254 1.801,1.182 2.34,3.572 1.223,5.414 -1.117,1.842 -3.5,2.465 -5.367,1.422 -0.191,-0.104 -17.18,-9.389 -31.535,-4.307 5.625,5.594 17.832,15.213 32.754,11.699 2.137,-0.52 4.305,0.824 4.812,2.977 0.504,2.15 -0.828,4.303 -2.977,4.809 -0.48,0.123 -11.262,3.016 -16.348,17.418 6.816,0.572 20.242,-0.08 27.816,-12.314 0.744,-1.197 2.041,-1.896 3.404,-1.896 z"
               id="path1502" />
          </g>
          <path
             style="fill:#4c241d;stroke-width:0.22444358"
             inkscape:connector-curvature="0"
             d="m 307.62593,124.35521 c -0.0572,0.0376 -0.12007,0.0694 -0.18692,0.094 -0.46582,0.16892 -0.98107,-0.0711 -1.15005,-0.53744 l -3.02188,-8.31632 c -0.17005,-0.46508 0.0715,-0.98051 0.53682,-1.15018 0.46583,-0.16892 0.98108,0.0711 1.15006,0.53745 l 3.02188,8.31631 c 0.14542,0.39855 -0.01,0.83297 -0.34991,1.05619 z"
             id="path1506" />
        </g>
        <g
           id="g1514"
           transform="matrix(0.18341713,-0.12042944,0.12042944,0.18341713,91.906604,150.21143)">
          <path
             id="path1510"
             d="M 196.989,161.076 V 84.338 h -28 v 76.185 c -21.768,5.724 -37.846,25.481 -37.846,49.046 0,2.27 0.201,4.488 0.489,6.678 l 17.423,-8.712 c 8.902,-4.451 19.506,-3.791 27.787,1.73 8.761,5.841 20.074,6.216 29.203,0.97 l 9.855,-5.664 c 4.963,-2.852 10.567,-3.984 16.06,-3.538 -3.212,-18.965 -16.935,-34.355 -34.971,-39.957 z"
             inkscape:connector-curvature="0"
             style="fill:#ffffff" />
          <path
             id="path1512"
             d="m 131.633,220.248 c -0.645,0 -1.289,-0.156 -1.875,-0.467 -1.145,-0.605 -1.922,-1.729 -2.09,-3.01 -0.359,-2.725 -0.527,-5.012 -0.527,-7.203 0,-23.795 15.41,-44.766 37.848,-52.039 V 84.338 c 0,-2.209 1.789,-4 4,-4 h 28 c 2.211,0 4,1.791 4,4 v 73.879 c 18.109,6.752 31.672,22.998 34.918,42.148 0.203,1.217 -0.164,2.461 -0.996,3.371 -0.832,0.908 -2.008,1.402 -3.273,1.283 -4.852,-0.402 -9.617,0.65 -13.746,3.021 l -9.855,5.662 c -10.516,6.041 -23.316,5.621 -33.414,-1.109 -7.059,-4.709 -16.172,-5.279 -23.777,-1.48 l -17.422,8.713 c -0.564,0.281 -1.178,0.422 -1.791,0.422 z m 41.356,-131.91 v 72.186 c 0,1.818 -1.227,3.406 -2.984,3.869 -20.527,5.396 -34.863,23.973 -34.863,45.176 0,0.15 0,0.301 0.004,0.451 l 12.121,-6.062 c 10.16,-5.076 22.344,-4.322 31.793,1.98 7.547,5.033 17.125,5.355 24.992,0.828 l 9.855,-5.662 c 4.012,-2.305 8.453,-3.676 13.066,-4.057 -4.223,-15.102 -16.043,-27.451 -31.172,-32.15 -1.672,-0.52 -2.812,-2.068 -2.812,-3.82 V 88.338 Z"
             inkscape:connector-curvature="0"
             style="fill:#4c241d" />
        </g>
        <g
           id="g1520"
           transform="matrix(0.18341713,-0.12042944,0.12042944,0.18341713,91.906604,150.21143)">
          <path
             id="path1516"
             d="m 215.9,204.571 -9.855,5.664 c -9.129,5.247 -20.442,4.871 -29.203,-0.97 -8.281,-5.521 -18.885,-6.181 -27.787,-1.73 l -17.423,8.712 c 3.277,24.875 24.51,44.091 50.28,44.091 28.039,0 50.769,-22.73 50.769,-50.769 0,-2.91 -0.251,-5.76 -0.721,-8.535 -5.493,-0.447 -11.097,0.685 -16.06,3.537 z"
             inkscape:connector-curvature="0"
             style="fill:#efefd2" />
          <path
             id="path1518"
             d="m 181.91,264.338 c -27.352,0 -50.672,-20.449 -54.242,-47.566 -0.223,-1.691 0.648,-3.338 2.176,-4.102 l 17.422,-8.713 c 10.16,-5.076 22.344,-4.322 31.793,1.98 7.547,5.033 17.125,5.355 24.992,0.828 l 9.855,-5.662 c 5.535,-3.18 11.895,-4.57 18.379,-4.057 1.824,0.146 3.316,1.516 3.621,3.32 0.512,3.043 0.773,6.139 0.773,9.201 0.001,30.2 -24.569,54.771 -54.769,54.771 z M 136.051,218.51 c 4.219,21.754 23.453,37.828 45.859,37.828 25.789,0 46.77,-20.98 46.77,-46.77 0,-1.527 -0.074,-3.066 -0.227,-4.602 -3.742,0.182 -7.344,1.223 -10.562,3.074 l -9.855,5.662 c -10.516,6.041 -23.316,5.621 -33.414,-1.109 -7.059,-4.709 -16.172,-5.279 -23.777,-1.48 z m 79.848,-13.938 h 0.039 z"
             inkscape:connector-curvature="0"
             style="fill:#4c241d" />
        </g>
        <path
           inkscape:connector-curvature="0"
           d="m 167.55004,145.91773 c -0.69559,0 -1.37822,0.28311 -1.87008,0.77497 -0.49212,0.49212 -0.77496,1.17448 -0.77496,1.87007 0,0.69559 0.2831,1.37822 0.77496,1.86981 0.49213,0.49213 1.17449,0.77523 1.87008,0.77523 0.69559,0 1.37821,-0.2831 1.87007,-0.77523 0.49213,-0.49186 0.77497,-1.17422 0.77497,-1.86981 0,-0.69559 -0.28311,-1.37821 -0.77497,-1.87007 -0.49186,-0.49213 -1.17448,-0.77497 -1.87007,-0.77497 z"
           id="path4686"
           style="stroke-width:0.26458332" />
      </g>
      <path
         style="stroke-width:0.26458332"
         id="path4688"
         d="m 99.827816,114.96889 c 0.695594,0 1.378214,-0.2831 1.870074,-0.77496 0.49213,-0.49213 0.77497,-1.17449 0.77497,-1.87008 0,-0.69559 -0.28311,-1.37821 -0.77497,-1.87007 -0.49186,-0.49186 -1.17448,-0.77497 -1.870074,-0.77497 -0.698235,0 -1.38086,0.28311 -1.87272,0.77497 -0.491861,0.49186 -0.774965,1.17448 -0.774965,1.87007 0,0.69559 0.283104,1.37822 0.774965,1.87008 0.49186,0.49186 1.17422,0.77496 1.87272,0.77496 z"
         inkscape:connector-curvature="0" />
      <path
         style="stroke-width:0.26458332"
         id="path4690"
         d="m 70.004777,175.83285 -7.721864,-4.2426 c -1.27979,-0.70273 -2.888457,-0.23574 -3.592248,1.04458 -0.703527,1.28058 -0.236009,2.88846 1.044575,3.59225 l 7.721864,4.24259 c 0.404284,0.22199 0.840581,0.32729 1.271588,0.32729 0.933714,0 1.839118,-0.49583 2.32066,-1.37213 0.703263,-1.28032 0.235479,-2.88819 -1.044575,-3.59198 z"
         inkscape:connector-curvature="0" />
    </g>
    <g
       id="g1570"
       transform="translate(34.77381,110.36905)"
       inkscape:export-xdpi="174.192"
       inkscape:export-ydpi="174.192">
      <path
         id="path1193"
         d="m -122.09128,-12.29887 h -152.4 c -3.11713,0 -5.64445,2.5273207 -5.64445,5.644444 v 28.222222 c 0,3.117124 2.52732,5.644445 5.64445,5.644445 h 152.4 c 3.11712,0 5.64444,-2.527321 5.64444,-5.644445 V -6.654426 c 0,-3.1171233 -2.52732,-5.644444 -5.64444,-5.644444 z m -132.64445,28.222222 c -4.67568,0 -8.46666,-3.790982 -8.46666,-8.4666668 0,-4.6756849 3.79098,-8.4666667 8.46666,-8.4666667 4.67569,0 8.46667,3.7909818 8.46667,8.4666667 0,4.6756848 -3.79098,8.4666668 -8.46667,8.4666668 z m 36.68889,-2.822222 c 0,1.558561 -1.26366,2.822222 -2.82222,2.822222 h -5.64445 c -1.55856,0 -2.82222,-1.263661 -2.82222,-2.822222 V 1.8122408 c 0,-1.55856169 1.26366,-2.8222223 2.82222,-2.8222223 h 5.64445 c 1.55856,0 2.82222,1.26366061 2.82222,2.8222223 z m 22.57778,0 c 0,1.558561 -1.26366,2.822222 -2.82222,2.822222 h -5.64445 c -1.55856,0 -2.82222,-1.263661 -2.82222,-2.822222 V 1.8122408 c 0,-1.55856169 1.26366,-2.8222223 2.82222,-2.8222223 h 5.64445 c 1.55856,0 2.82222,1.26366061 2.82222,2.8222223 z m 0,0"
         inkscape:connector-curvature="0"
         style="fill:#acabb1;stroke-width:0.35277778" />
      <path
         id="path1195"
         d="m -122.09128,38.50113 h -152.4 c -3.11713,0 -5.64445,2.527321 -5.64445,5.644444 v 28.222223 c 0,3.117123 2.52732,5.644444 5.64445,5.644444 h 152.4 c 3.11712,0 5.64444,-2.527321 5.64444,-5.644444 V 44.145574 c 0,-3.117123 -2.52732,-5.644444 -5.64444,-5.644444 z m -132.64445,28.222222 c -4.67568,0 -8.46666,-3.790981 -8.46666,-8.466666 0,-4.675685 3.79098,-8.466667 8.46666,-8.466667 4.67569,0 8.46667,3.790982 8.46667,8.466667 0,4.675685 -3.79098,8.466666 -8.46667,8.466666 z m 36.68889,-2.822222 c 0,1.558562 -1.26366,2.822222 -2.82222,2.822222 h -5.64445 c -1.55856,0 -2.82222,-1.26366 -2.82222,-2.822222 V 52.612241 c 0,-1.558562 1.26366,-2.822222 2.82222,-2.822222 h 5.64445 c 1.55856,0 2.82222,1.26366 2.82222,2.822222 z m 0,0"
         inkscape:connector-curvature="0"
         style="fill:#acabb1;stroke-width:0.35277778" />
      <path
         id="path1199"
         d="m -116.67284,42.650403 c 0.004,-0.05788 -0.006,-0.117132 -0.0276,-0.169499 0.022,0.05237 0.0317,0.111623 0.0276,0.169499 v 0.04134 c -2.36884,-22.839606 -22.51439,-39.626868 -45.40773,-37.8367959 -22.89335,1.7900721 -40.18497,21.5056649 -38.97368,44.4362209 1.2113,22.931931 20.48178,40.715516 43.43714,40.085751 22.95398,-0.631141 41.21988,-19.446875 41.17027,-42.409124 -0.001,-1.427646 -0.073,-2.855296 -0.21773,-4.276052 z m -42.10733,38.18406 c -18.70411,0 -33.86667,-15.162554 -33.86667,-33.866666 0,-18.704112 15.16256,-33.866667 33.86667,-33.866667 18.70411,0 33.86667,15.162555 33.86667,33.866667 0,18.704112 -15.16256,33.866666 -33.86667,33.866666 z m 0,0"
         inkscape:connector-curvature="0"
         style="fill:#ff7956;stroke-width:0.35277778" />
      <path
         id="path1201"
         d="m -124.9135,46.967797 c 0,18.704112 -15.16256,33.866666 -33.86667,33.866666 -18.70411,0 -33.86667,-15.162554 -33.86667,-33.866666 0,-18.704112 15.16256,-33.866667 33.86667,-33.866667 18.70411,0 33.86667,15.162555 33.86667,33.866667 z m 0,0"
         inkscape:connector-curvature="0"
         style="fill:#ffb655;stroke-width:0.35277778" />
      <g
         transform="matrix(1.1253859,0,0,1.1253859,42.601122,-132.50875)"
         id="g1398">
        <g
           transform="matrix(0.18761652,-0.12318671,0.12318671,0.18761652,-225.99537,143.25504)"
           id="g4790">
          <path
             style="fill:#ffffff"
             inkscape:connector-curvature="0"
             d="m 212.373,145.568 h 23.077 v 55.385 h -23.077 z"
             transform="matrix(-0.707,-0.707,0.707,-0.707,259.727,454.104)"
             id="path4786" />
          <path
             style="fill:#4c241d"
             inkscape:connector-curvature="0"
             d="m 212.489,205.002 c -1.062,0 -2.078,-0.422 -2.828,-1.172 l -16.316,-16.318 c -1.562,-1.562 -1.562,-4.094 0,-5.656 l 39.16,-39.162 c 1.562,-1.562 4.094,-1.562 5.656,0 l 16.32,16.316 c 0.75,0.75 1.172,1.768 1.172,2.828 0,1.06 -0.422,2.078 -1.172,2.828 l -39.164,39.164 c -0.75,0.75 -1.766,1.172 -2.828,1.172 z m -10.661,-20.319 10.66,10.662 33.508,-33.508 -10.664,-10.66 z"
             id="path4788" />
        </g>
        <g
           id="g1092"
           transform="matrix(1.1203659,0,0,1.1203659,-524.07199,44.40131)">
          <g
             id="g4782"
             transform="matrix(0.18761652,-0.12318671,0.12318671,0.18761652,261.23056,87.195993)">
            <path
               id="path4778"
               d="m 116.88,193.514 c 41.665,-4.872 49.918,-39.748 49.918,-39.748 -44.327,0.559 -57.08,23.322 -57.08,23.322 22.017,-46.351 6.869,-75.716 6.869,-75.716 0,0 -26.703,19.462 -27.794,70.764 0,0 -1.198,-26.064 -40.574,-46.431 0,0 -8.253,34.876 26.81,57.905 0,0 -22.763,-12.752 -40.015,-2.103 0,0 16.799,22.39 40.201,16.879 0,0 -15.601,3.674 -20.553,24.6 0,0 24.413,5.777 36.34,-13.498 2.023,22.576 26.437,28.354 26.437,28.354 4.952,-20.926 -7.348,-31.202 -7.348,-31.202 18.45,15.415 43.502,2.928 43.502,2.928 -10.649,-17.252 -36.713,-16.054 -36.713,-16.054 z"
               inkscape:connector-curvature="0"
               style="fill:#a9ba5a" />
            <path
               id="path4780"
               d="m 117.442,241.842 c -0.305,0 -0.617,-0.035 -0.926,-0.107 -0.973,-0.23 -21.102,-5.209 -27.629,-23.309 -13.949,13.248 -34.172,8.682 -35.148,8.453 -1.031,-0.244 -1.926,-0.889 -2.48,-1.791 -0.559,-0.904 -0.734,-1.99 -0.488,-3.023 2.145,-9.074 6.133,-15.248 10.223,-19.412 -17.324,-3.227 -28.59,-17.955 -29.18,-18.744 -0.676,-0.898 -0.941,-2.039 -0.73,-3.145 0.207,-1.104 0.871,-2.068 1.828,-2.66 8.074,-4.986 17.066,-5.477 24.793,-4.352 -8.059,-9.475 -11.625,-19.309 -13.152,-26.945 -2.461,-12.312 -0.316,-21.633 -0.223,-22.023 0.281,-1.197 1.102,-2.199 2.223,-2.713 1.113,-0.516 2.414,-0.484 3.504,0.082 19.961,10.324 30.602,22.135 36.273,31.668 5.957,-39.229 26.891,-54.945 27.902,-55.682 0.949,-0.688 2.148,-0.93 3.277,-0.66 1.137,0.27 2.098,1.021 2.633,2.059 0.574,1.113 12.242,24.543 -0.012,62.281 9.344,-5.979 24.152,-11.77 46.617,-12.053 1.184,0.049 2.406,0.539 3.172,1.498 0.77,0.963 1.055,2.225 0.77,3.424 -0.09,0.391 -2.352,9.682 -10.07,19.584 -4.789,6.143 -12.383,13.338 -23.836,18.193 7.422,2.457 15.23,6.922 20.215,15.002 0.59,0.957 0.754,2.117 0.445,3.199 -0.309,1.08 -1.059,1.98 -2.062,2.482 -0.883,0.438 -17.559,8.555 -34.484,3.68 1.789,5.555 2.582,12.861 0.434,21.936 -0.436,1.839 -2.077,3.078 -3.889,3.078 z M 91.004,205.488 c 0.305,0 0.613,0.035 0.922,0.107 1.676,0.396 2.91,1.82 3.062,3.535 1.285,14.328 12.984,20.926 19.344,23.475 1.926,-15.316 -6.637,-22.754 -6.805,-22.896 -0.004,0 -0.004,0 -0.004,0 -1.695,-1.418 -1.918,-3.939 -0.504,-5.635 1.418,-1.695 3.938,-1.922 5.637,-0.506 11.812,9.879 27.031,6.73 34.539,4.234 -10.562,-11.037 -29.898,-10.299 -30.133,-10.293 -2.129,0.043 -3.996,-1.523 -4.172,-3.672 -0.172,-2.146 1.383,-4.047 3.523,-4.297 29.219,-3.416 40.742,-22.275 44.699,-31.57 -36.539,2.186 -47.449,20.289 -47.918,21.096 -1.078,1.863 -3.441,2.549 -5.332,1.549 -1.898,-0.998 -2.68,-3.305 -1.758,-5.244 15.703,-33.062 11.816,-56.992 8.84,-66.99 -7.133,7.652 -21.379,27.426 -22.152,63.84 -0.047,2.158 -1.793,3.889 -3.949,3.916 -2.359,0.041 -3.949,-1.662 -4.047,-3.816 -0.055,-0.904 -1.699,-21.979 -33.383,-40.309 -0.629,10.074 1.219,32.104 25.809,48.254 1.801,1.182 2.34,3.572 1.223,5.414 -1.117,1.842 -3.5,2.465 -5.367,1.422 -0.191,-0.104 -17.18,-9.389 -31.535,-4.307 5.625,5.594 17.832,15.213 32.754,11.699 2.137,-0.52 4.305,0.824 4.812,2.977 0.504,2.15 -0.828,4.303 -2.977,4.809 -0.48,0.123 -11.262,3.016 -16.348,17.418 6.816,0.572 20.242,-0.08 27.816,-12.314 0.744,-1.197 2.041,-1.896 3.404,-1.896 z"
               inkscape:connector-curvature="0"
               style="fill:#4c241d" />
          </g>
          <path
             id="path4784"
             d="m 307.62593,124.35521 c -0.0572,0.0376 -0.12007,0.0694 -0.18692,0.094 -0.46582,0.16892 -0.98107,-0.0711 -1.15005,-0.53744 l -3.02188,-8.31632 c -0.17005,-0.46508 0.0715,-0.98051 0.53682,-1.15018 0.46583,-0.16892 0.98108,0.0711 1.15006,0.53745 l 3.02188,8.31631 c 0.14542,0.39855 -0.01,0.83297 -0.34991,1.05619 z"
             inkscape:connector-curvature="0"
             style="fill:#4c241d;stroke-width:0.22444358" />
        </g>
        <g
           transform="matrix(0.18761652,-0.12318671,0.12318671,0.18761652,-225.99537,143.25504)"
           id="g4796">
          <path
             style="fill:#ffffff"
             inkscape:connector-curvature="0"
             d="M 196.989,161.076 V 84.338 h -28 v 76.185 c -21.768,5.724 -37.846,25.481 -37.846,49.046 0,2.27 0.201,4.488 0.489,6.678 l 17.423,-8.712 c 8.902,-4.451 19.506,-3.791 27.787,1.73 8.761,5.841 20.074,6.216 29.203,0.97 l 9.855,-5.664 c 4.963,-2.852 10.567,-3.984 16.06,-3.538 -3.212,-18.965 -16.935,-34.355 -34.971,-39.957 z"
             id="path4792" />
          <path
             style="fill:#4c241d"
             inkscape:connector-curvature="0"
             d="m 131.633,220.248 c -0.645,0 -1.289,-0.156 -1.875,-0.467 -1.145,-0.605 -1.922,-1.729 -2.09,-3.01 -0.359,-2.725 -0.527,-5.012 -0.527,-7.203 0,-23.795 15.41,-44.766 37.848,-52.039 V 84.338 c 0,-2.209 1.789,-4 4,-4 h 28 c 2.211,0 4,1.791 4,4 v 73.879 c 18.109,6.752 31.672,22.998 34.918,42.148 0.203,1.217 -0.164,2.461 -0.996,3.371 -0.832,0.908 -2.008,1.402 -3.273,1.283 -4.852,-0.402 -9.617,0.65 -13.746,3.021 l -9.855,5.662 c -10.516,6.041 -23.316,5.621 -33.414,-1.109 -7.059,-4.709 -16.172,-5.279 -23.777,-1.48 l -17.422,8.713 c -0.564,0.281 -1.178,0.422 -1.791,0.422 z m 41.356,-131.91 v 72.186 c 0,1.818 -1.227,3.406 -2.984,3.869 -20.527,5.396 -34.863,23.973 -34.863,45.176 0,0.15 0,0.301 0.004,0.451 l 12.121,-6.062 c 10.16,-5.076 22.344,-4.322 31.793,1.98 7.547,5.033 17.125,5.355 24.992,0.828 l 9.855,-5.662 c 4.012,-2.305 8.453,-3.676 13.066,-4.057 -4.223,-15.102 -16.043,-27.451 -31.172,-32.15 -1.672,-0.52 -2.812,-2.068 -2.812,-3.82 V 88.338 Z"
             id="path4794" />
        </g>
        <g
           transform="matrix(0.18761652,-0.12318671,0.12318671,0.18761652,-225.99537,143.25504)"
           id="g4802">
          <path
             style="fill:#efefd2"
             inkscape:connector-curvature="0"
             d="m 215.9,204.571 -9.855,5.664 c -9.129,5.247 -20.442,4.871 -29.203,-0.97 -8.281,-5.521 -18.885,-6.181 -27.787,-1.73 l -17.423,8.712 c 3.277,24.875 24.51,44.091 50.28,44.091 28.039,0 50.769,-22.73 50.769,-50.769 0,-2.91 -0.251,-5.76 -0.721,-8.535 -5.493,-0.447 -11.097,0.685 -16.06,3.537 z"
             id="path4798" />
          <path
             style="fill:#4c241d"
             inkscape:connector-curvature="0"
             d="m 181.91,264.338 c -27.352,0 -50.672,-20.449 -54.242,-47.566 -0.223,-1.691 0.648,-3.338 2.176,-4.102 l 17.422,-8.713 c 10.16,-5.076 22.344,-4.322 31.793,1.98 7.547,5.033 17.125,5.355 24.992,0.828 l 9.855,-5.662 c 5.535,-3.18 11.895,-4.57 18.379,-4.057 1.824,0.146 3.316,1.516 3.621,3.32 0.512,3.043 0.773,6.139 0.773,9.201 0.001,30.2 -24.569,54.771 -54.769,54.771 z M 136.051,218.51 c 4.219,21.754 23.453,37.828 45.859,37.828 25.789,0 46.77,-20.98 46.77,-46.77 0,-1.527 -0.074,-3.066 -0.227,-4.602 -3.742,0.182 -7.344,1.223 -10.562,3.074 l -9.855,5.662 c -10.516,6.041 -23.316,5.621 -33.414,-1.109 -7.059,-4.709 -16.172,-5.279 -23.777,-1.48 z m 79.848,-13.938 h 0.039 z"
             id="path4800" />
        </g>
      </g>
      <path
         id="path1203"
         d="m -122.09128,-63.098871 h -152.4 c -3.11713,0 -5.64445,2.527322 -5.64445,5.644445 v 28.222222 c 0,3.117123 2.52732,5.644445 5.64445,5.644445 h 152.4 c 3.11712,0 5.64444,-2.527322 5.64444,-5.644445 v -28.222222 c 0,-3.117123 -2.52732,-5.644445 -5.64444,-5.644445 z m -132.64445,28.222223 c -4.67568,0 -8.46666,-3.790984 -8.46666,-8.466667 0,-4.675684 3.79098,-8.466667 8.46666,-8.466667 4.67569,0 8.46667,3.790983 8.46667,8.466667 0,4.675683 -3.79098,8.466667 -8.46667,8.466667 z m 36.68889,-2.822223 c 0,1.558562 -1.26366,2.822223 -2.82222,2.822223 h -5.64445 c -1.55856,0 -2.82222,-1.263661 -2.82222,-2.822223 V -48.98776 c 0,-1.558561 1.26366,-2.822222 2.82222,-2.822222 h 5.64445 c 1.55856,0 2.82222,1.263661 2.82222,2.822222 z m 22.57778,0 c 0,1.558562 -1.26366,2.822223 -2.82222,2.822223 h -5.64445 c -1.55856,0 -2.82222,-1.263661 -2.82222,-2.822223 V -48.98776 c 0,-1.558561 1.26366,-2.822222 2.82222,-2.822222 h 5.64445 c 1.55856,0 2.82222,1.263661 2.82222,2.822222 z m 22.57778,0 c 0,1.558562 -1.26366,2.822223 -2.82222,2.822223 h -5.64445 c -1.55856,0 -2.82222,-1.263661 -2.82222,-2.822223 V -48.98776 c 0,-1.558561 1.26366,-2.822222 2.82222,-2.822222 h 5.64445 c 1.55856,0 2.82222,1.263661 2.82222,2.822222 z m 0,0"
         inkscape:connector-curvature="0"
         style="fill:#acabb1;stroke-width:0.35277778" />
      <path
         id="path1205"
         d="m -266.02462,89.30113 h 16.93334 c 1.55856,0 2.82222,-1.26366 2.82222,-2.822222 v -8.466667 h -22.57778 v 8.466667 c 0,1.558562 1.26366,2.822222 2.82222,2.822222 z m 0,0"
         inkscape:connector-curvature="0"
         style="fill:#787680;stroke-width:0.35277778" />
      <path
         id="path1207"
         d="m -268.84684,27.212241 h 22.57778 V 38.50113 h -22.57778 z m 0,0"
         inkscape:connector-curvature="0"
         style="fill:#787680;stroke-width:0.35277778" />
      <path
         id="path1209"
         d="m -268.84684,-23.587759 h 22.57778 v 11.288889 h -22.57778 z m 0,0"
         inkscape:connector-curvature="0"
         style="fill:#787680;stroke-width:0.35277778" />
      <path
         id="path1211"
         d="m -150.3135,-23.587759 h 22.57777 v 11.288889 h -22.57777 z m 0,0"
         inkscape:connector-curvature="0"
         style="fill:#787680;stroke-width:0.35277778" />
      <path
         id="path1213"
         d="m -246.26906,-43.343315 c 0,4.675683 -3.79098,8.466667 -8.46667,8.466667 -4.67568,0 -8.46666,-3.790984 -8.46666,-8.466667 0,-4.675684 3.79098,-8.466667 8.46666,-8.466667 4.67569,0 8.46667,3.790983 8.46667,8.466667 z m 0,0"
         inkscape:connector-curvature="0"
         style="fill:#ff9478;stroke-width:0.35277778" />
      <path
         id="path1215"
         d="m -226.51351,-51.809982 h 5.64445 c 1.55856,0 2.82222,1.263661 2.82222,2.822222 v 11.288889 c 0,1.558562 -1.26366,2.822223 -2.82222,2.822223 h -5.64445 c -1.55856,0 -2.82222,-1.263661 -2.82222,-2.822223 V -48.98776 c 0,-1.558561 1.26366,-2.822222 2.82222,-2.822222 z m 0,0"
         inkscape:connector-curvature="0"
         style="fill:#ffe477;stroke-width:0.35277778" />
      <path
         id="path1217"
         d="m -203.93573,-51.809982 h 5.64445 c 1.55856,0 2.82222,1.263661 2.82222,2.822222 v 11.288889 c 0,1.558562 -1.26366,2.822223 -2.82222,2.822223 h -5.64445 c -1.55856,0 -2.82222,-1.263661 -2.82222,-2.822223 V -48.98776 c 0,-1.558561 1.26366,-2.822222 2.82222,-2.822222 z m 0,0"
         inkscape:connector-curvature="0"
         style="fill:#ffe477;stroke-width:0.35277778" />
      <path
         id="path1219"
         d="m -181.35795,-51.809982 h 5.64445 c 1.55856,0 2.82222,1.263661 2.82222,2.822222 v 11.288889 c 0,1.558562 -1.26366,2.822223 -2.82222,2.822223 h -5.64445 c -1.55856,0 -2.82222,-1.263661 -2.82222,-2.822223 V -48.98776 c 0,-1.558561 1.26366,-2.822222 2.82222,-2.822222 z m 0,0"
         inkscape:connector-curvature="0"
         style="fill:#ffe477;stroke-width:0.35277778" />
      <path
         id="path1221"
         d="m -246.26906,7.4566852 c 0,4.6756848 -3.79098,8.4666668 -8.46667,8.4666668 -4.67568,0 -8.46666,-3.790982 -8.46666,-8.4666668 0,-4.6756849 3.79098,-8.4666667 8.46666,-8.4666667 4.67569,0 8.46667,3.7909818 8.46667,8.4666667 z m 0,0"
         inkscape:connector-curvature="0"
         style="fill:#ff9478;stroke-width:0.35277778" />
      <path
         id="path1223"
         d="m -226.51351,-1.0099815 h 5.64445 c 1.55856,0 2.82222,1.26366061 2.82222,2.8222223 V 13.10113 c 0,1.558561 -1.26366,2.822222 -2.82222,2.822222 h -5.64445 c -1.55856,0 -2.82222,-1.263661 -2.82222,-2.822222 V 1.8122408 c 0,-1.55856169 1.26366,-2.8222223 2.82222,-2.8222223 z m 0,0"
         inkscape:connector-curvature="0"
         style="fill:#ffe477;stroke-width:0.35277778" />
      <path
         id="path1225"
         d="m -203.93573,-1.0099815 h 5.64445 c 1.55856,0 2.82222,1.26366061 2.82222,2.8222223 V 13.10113 c 0,1.558561 -1.26366,2.822222 -2.82222,2.822222 h -5.64445 c -1.55856,0 -2.82222,-1.263661 -2.82222,-2.822222 V 1.8122408 c 0,-1.55856169 1.26366,-2.8222223 2.82222,-2.8222223 z m 0,0"
         inkscape:connector-curvature="0"
         style="fill:#ffe477;stroke-width:0.35277778" />
      <path
         id="path1227"
         d="m -246.26906,58.256686 c 0,4.675685 -3.79098,8.466666 -8.46667,8.466666 -4.67568,0 -8.46666,-3.790981 -8.46666,-8.466666 0,-4.675685 3.79098,-8.466667 8.46666,-8.466667 4.67569,0 8.46667,3.790982 8.46667,8.466667 z m 0,0"
         inkscape:connector-curvature="0"
         style="fill:#ff9478;stroke-width:0.35277778" />
      <path
         id="path1229"
         d="m -226.51351,49.790019 h 5.64445 c 1.55856,0 2.82222,1.26366 2.82222,2.822222 V 63.90113 c 0,1.558562 -1.26366,2.822222 -2.82222,2.822222 h -5.64445 c -1.55856,0 -2.82222,-1.26366 -2.82222,-2.822222 V 52.612241 c 0,-1.558562 1.26366,-2.822222 2.82222,-2.822222 z m 0,0"
         inkscape:connector-curvature="0"
         style="fill:#ffe477;stroke-width:0.35277778" />
      <path
         inkscape:connector-curvature="0"
         d="m -158.78017,10.278907 c -20.26268,0 -36.68889,16.426216 -36.68889,36.68889 0,20.262673 16.42621,36.688889 36.68889,36.688889 20.26267,0 36.68889,-16.426216 36.68889,-36.688889 -0.0234,-20.253029 -16.43586,-36.665462 -36.68889,-36.68889 z m 0,67.733334 c -17.14555,0 -31.04445,-13.898894 -31.04445,-31.044444 0,-17.145551 13.8989,-31.044445 31.04445,-31.044445 17.14555,0 31.04444,13.898894 31.04444,31.044445 -0.0207,17.137281 -13.90716,31.023775 -31.04444,31.044444 z m 0,0"
         id="path1233"
         style="fill:#3e3d42;stroke-width:0.35277778" />
      <path
         inkscape:connector-curvature="0"
         d="m -122.09128,-20.765537 c 4.67568,0 8.46666,-3.790982 8.46666,-8.466667 v -28.222222 c 0,-4.675684 -3.79098,-8.466667 -8.46666,-8.466667 h -152.4 c -4.67569,0 -8.46667,3.790983 -8.46667,8.466667 v 28.222222 c 0,4.675685 3.79098,8.466667 8.46667,8.466667 h 2.82222 v 5.644444 h -2.82222 c -4.67569,0 -8.46667,3.790982 -8.46667,8.466667 v 28.222222 c 0,4.675685 3.79098,8.466667 8.46667,8.466667 h 2.82222 v 5.644445 h -2.82222 c -4.67569,0 -8.46667,3.790981 -8.46667,8.466666 v 28.222223 c 0,4.675685 3.79098,8.466666 8.46667,8.466666 h 2.82222 v 5.644445 c 0,3.117123 2.52732,5.644444 5.64444,5.644444 h 16.93334 c 3.11712,0 5.64444,-2.527321 5.64444,-5.644444 v -5.644445 h 54.90104 c 16.98708,15.057823 42.54418,15.057823 59.53125,0 h 6.92327 c 4.67568,0 8.46666,-3.790981 8.46666,-8.466666 V 44.145574 c -0.001,-0.640789 -0.0854,-1.27744 -0.2508,-1.89618 -0.49747,-4.697734 -1.73633,-9.285221 -3.66971,-13.594348 2.42534,-1.544779 3.90122,-4.212661 3.92051,-7.08725 V -6.654426 c 0,-4.675685 -3.79098,-8.466667 -8.46666,-8.466667 h -2.82222 v -5.644444 z m -155.22223,-8.466667 v -28.222222 c 0,-1.558562 1.26367,-2.822223 2.82223,-2.822223 h 152.4 c 1.55856,0 2.82222,1.263661 2.82222,2.822223 v 28.222222 c 0,1.558562 -1.26366,2.822222 -2.82222,2.822222 h -152.4 c -1.55856,0 -2.82223,-1.26366 -2.82223,-2.822222 z m 33.86667,14.111111 v -5.644444 h 90.31111 v 5.644444 z m -22.57778,-5.644444 h 16.93334 v 5.644444 h -16.93334 z m 0,50.8 h 16.93334 v 5.644445 h -16.93334 z m 65.4141,0 c -0.73725,1.83968 -1.35048,3.724836 -1.83831,5.644445 h -40.99801 v -5.644445 z m -76.70299,42.333334 V 44.145574 c 0,-1.558561 1.26367,-2.822222 2.82223,-2.822222 h 70.94829 c -1.62608,12.126736 1.83693,24.384385 9.5691,33.866667 h -80.51739 c -1.55856,0 -2.82223,-1.263661 -2.82223,-2.822222 z m 28.22223,14.111111 h -16.93334 v -5.644445 h 16.93334 z m 90.31111,0 c -21.82124,0 -39.51111,-17.689876 -39.51111,-39.511111 0,-21.821236 17.68987,-39.5111118 39.51111,-39.5111118 21.82123,0 39.51111,17.6898758 39.51111,39.5111118 -0.0234,21.811587 -17.69952,39.487683 -39.51111,39.511111 z m 39.51111,-14.111111 c 0,1.558561 -1.26366,2.822222 -2.82222,2.822222 h -1.49517 c 1.61781,-2.010558 3.062,-4.154784 4.31739,-6.409256 z m 0,-79.022223 v 28.222222 c -0.011,0.782726 -0.35278,1.52411 -0.93982,2.040876 -8.23378,-13.661873 -23.07939,-21.9493922 -39.0288,-21.7881621 -15.94941,0.1598506 -30.62552,8.7450291 -38.58231,22.5695091 h -76.67129 c -1.55856,0 -2.82223,-1.263661 -2.82223,-2.822223 V -6.654426 c 0,-1.5585616 1.26367,-2.8222222 2.82223,-2.8222222 h 152.4 c 1.55856,0 2.82222,1.2636606 2.82222,2.8222222 z m -11.28889,-8.466667 h -16.93333 v -5.644444 h 16.93333 z m 0,0"
         id="path1235"
         style="fill:#3e3d42;stroke-width:0.35277778" />
      <path
         inkscape:connector-curvature="0"
         d="m -254.73573,-32.054426 c 6.23425,0 11.28889,-5.054644 11.28889,-11.288889 0,-6.234245 -5.05464,-11.288889 -11.28889,-11.288889 -6.23424,0 -11.28889,5.054644 -11.28889,11.288889 0,6.234245 5.05465,11.288889 11.28889,11.288889 z m 0,-16.933334 c 3.11712,0 5.64445,2.527322 5.64445,5.644445 0,3.117123 -2.52733,5.644444 -5.64445,5.644444 -3.11712,0 -5.64444,-2.527321 -5.64444,-5.644444 0,-3.117123 2.52732,-5.644445 5.64444,-5.644445 z m 0,0"
         id="path1237"
         style="fill:#3e3d42;stroke-width:0.35277778" />
      <path
         inkscape:connector-curvature="0"
         d="m -226.51351,-32.054426 h 5.64445 c 3.11712,0 5.64444,-2.527322 5.64444,-5.644445 V -48.98776 c 0,-3.117122 -2.52732,-5.644444 -5.64444,-5.644444 h -5.64445 c -3.11712,0 -5.64444,2.527322 -5.64444,5.644444 v 11.288889 c 0,3.117123 2.52732,5.644445 5.64444,5.644445 z m 0,-16.933334 h 5.64445 v 11.288889 h -5.64445 z m 0,0"
         id="path1239"
         style="fill:#3e3d42;stroke-width:0.35277778" />
      <path
         inkscape:connector-curvature="0"
         d="m -203.93573,-32.054426 h 5.64445 c 3.11712,0 5.64444,-2.527322 5.64444,-5.644445 V -48.98776 c 0,-3.117122 -2.52732,-5.644444 -5.64444,-5.644444 h -5.64445 c -3.11712,0 -5.64444,2.527322 -5.64444,5.644444 v 11.288889 c 0,3.117123 2.52732,5.644445 5.64444,5.644445 z m 0,-16.933334 h 5.64445 v 11.288889 h -5.64445 z m 0,0"
         id="path1241"
         style="fill:#3e3d42;stroke-width:0.35277778" />
      <path
         inkscape:connector-curvature="0"
         d="m -181.35795,-32.054426 h 5.64445 c 3.11712,0 5.64444,-2.527322 5.64444,-5.644445 V -48.98776 c 0,-3.117122 -2.52732,-5.644444 -5.64444,-5.644444 h -5.64445 c -3.11712,0 -5.64444,2.527322 -5.64444,5.644444 v 11.288889 c 0,3.117123 2.52732,5.644445 5.64444,5.644445 z m 0,-16.933334 h 5.64445 v 11.288889 h -5.64445 z m 0,0"
         id="path1243"
         style="fill:#3e3d42;stroke-width:0.35277778" />
      <path
         inkscape:connector-curvature="0"
         d="m -158.78017,-51.809982 h 28.22222 v 5.644445 h -28.22222 z m 0,0"
         id="path1245"
         style="fill:#3e3d42;stroke-width:0.35277778" />
      <path
         inkscape:connector-curvature="0"
         d="m -158.78017,-40.521093 h 28.22222 v 5.644445 h -28.22222 z m 0,0"
         id="path1247"
         style="fill:#3e3d42;stroke-width:0.35277778" />
      <path
         inkscape:connector-curvature="0"
         d="m -254.73573,-3.8322037 c -6.23424,0 -11.28889,5.0546423 -11.28889,11.2888889 0,6.2342428 5.05465,11.2888888 11.28889,11.2888888 6.23425,0 11.28889,-5.054646 11.28889,-11.2888888 0,-6.2342466 -5.05464,-11.2888889 -11.28889,-11.2888889 z m 0,16.9333337 c -3.11712,0 -5.64444,-2.527321 -5.64444,-5.6444448 0,-3.1171233 2.52732,-5.6444444 5.64444,-5.6444444 3.11712,0 5.64445,2.5273211 5.64445,5.6444444 0,3.1171238 -2.52733,5.6444448 -5.64445,5.6444448 z m 0,0"
         id="path1249"
         style="fill:#3e3d42;stroke-width:0.35277778" />
      <path
         inkscape:connector-curvature="0"
         d="m -220.86906,-3.8322037 h -5.64445 c -3.11712,0 -5.64444,2.5273212 -5.64444,5.6444445 V 13.10113 c 0,3.117123 2.52732,5.644444 5.64444,5.644444 h 5.64445 c 3.11712,0 5.64444,-2.527321 5.64444,-5.644444 V 1.8122408 c 0,-3.1171233 -2.52732,-5.6444445 -5.64444,-5.6444445 z M -226.51351,13.10113 V 1.8122408 h 5.64445 V 13.10113 Z m 0,0"
         id="path1251"
         style="fill:#3e3d42;stroke-width:0.35277778" />
      <path
         inkscape:connector-curvature="0"
         d="m -198.29128,-3.8322037 h -5.64445 c -3.11712,0 -5.64444,2.5273212 -5.64444,5.6444445 V 13.10113 c 0,3.117123 2.52732,5.644444 5.64444,5.644444 h 5.64445 c 3.11712,0 5.64444,-2.527321 5.64444,-5.644444 V 1.8122408 c 0,-3.1171233 -2.52732,-5.6444445 -5.64444,-5.6444445 z M -203.93573,13.10113 V 1.8122408 h 5.64445 V 13.10113 Z m 0,0"
         id="path1253"
         style="fill:#3e3d42;stroke-width:0.35277778" />
      <path
         inkscape:connector-curvature="0"
         d="m -254.73573,69.545575 c 6.23425,0 11.28889,-5.054646 11.28889,-11.288889 0,-6.234247 -5.05464,-11.288889 -11.28889,-11.288889 -6.23424,0 -11.28889,5.054642 -11.28889,11.288889 0,6.234243 5.05465,11.288889 11.28889,11.288889 z m 0,-16.933334 c 3.11712,0 5.64445,2.527321 5.64445,5.644445 0,3.117123 -2.52733,5.644444 -5.64445,5.644444 -3.11712,0 -5.64444,-2.527321 -5.64444,-5.644444 0,-3.117124 2.52732,-5.644445 5.64444,-5.644445 z m 0,0"
         id="path1255"
         style="fill:#3e3d42;stroke-width:0.35277778" />
      <path
         inkscape:connector-curvature="0"
         d="m -226.51351,69.545575 h 5.64445 c 3.11712,0 5.64444,-2.527322 5.64444,-5.644445 V 52.612241 c 0,-3.117123 -2.52732,-5.644444 -5.64444,-5.644444 h -5.64445 c -3.11712,0 -5.64444,2.527321 -5.64444,5.644444 V 63.90113 c 0,3.117123 2.52732,5.644445 5.64444,5.644445 z m 0,-16.933334 h 5.64445 V 63.90113 h -5.64445 z m 0,0"
         id="path1257"
         style="fill:#3e3d42;stroke-width:0.35277778" />
    </g>
  </g>
</svg>
