<?xml version="1.0" encoding="iso-8859-1"?>
<!-- Generator: Adobe Illustrator 19.0.0, SVG Export Plug-In . SVG Version: 6.00 Build 0)  -->
<svg version="1.1" id="Capa_1" xmlns="http://www.w3.org/2000/svg" xmlns:xlink="http://www.w3.org/1999/xlink" x="0px" y="0px"
	 viewBox="0 0 512 512" style="enable-background:new 0 0 512 512;" xml:space="preserve">
<polygon style="fill:#FFB954;" points="256.229,9.998 34.227,132.999 34.227,379.001 256.229,502.003 478.231,379.001 
	478.231,132.999 "/>
<polygon style="fill:#FFC66C;" points="34.227,379.009 256,501.884 256,256.008 34.227,133.134 "/>
<polygon style="fill:#FEDA9B;" points="34.113,132.999 256.115,256 478.116,132.999 256.115,9.998 "/>
<g>
	<polygon style="fill:#FFFFFF;" points="388.663,84.03 167.496,206.568 115.636,177.929 336.745,55.424 	"/>
	<polygon style="fill:#FFFFFF;" points="115.636,177.929 115.636,241.781 167.496,270.274 167.496,206.568 	"/>
	<path style="fill:#FFFFFF;" d="M342.689,307.853l-0.021,0.004l27.945-47.35l28.079,36.487h-0.003
		c5.08,6.348,8.127,15.145,8.127,25.379c0,23.609-16.209,45.619-36.204,49.161c-19.995,3.542-36.204-12.316-36.204-35.419
		C334.409,326.001,337.516,316.117,342.689,307.853z"/>
</g>
<path d="M488,132.999c0-3.635-1.973-6.983-5.153-8.745L260.845,1.253c-3.014-1.671-6.676-1.671-9.69,0L29.153,124.254
	c-3.18,1.762-5.153,5.11-5.153,8.745v246.002c0,3.635,1.973,6.983,5.153,8.745l222.002,123.001c1.507,0.835,3.176,1.253,4.845,1.253
	c1.669,0,3.338-0.418,4.845-1.253l222.002-123.001c3.18-1.762,5.153-5.11,5.153-8.745v-81.067c0-5.521-4.476-9.998-9.998-9.998
	s-9.998,4.477-9.998,9.998v75.177L265.998,485.034V261.89l202.007-111.923v61.988c0,5.522,4.476,9.998,9.998,9.998
	s9.998-4.476,9.998-9.998L488,132.999L488,132.999z M256,244.571l-68.233-37.805L389.14,95.194l68.233,37.805L256,244.571z
	 M125.634,195.2l31.863,17.654v40.52l-31.863-17.507V195.2z M256,21.427l60.737,33.652l-62.602,34.685
	c-4.83,2.675-6.576,8.761-3.9,13.59c1.826,3.295,5.237,5.155,8.754,5.155c1.639,0,3.301-0.404,4.836-1.255l73.54-40.745
	l31.145,17.256L167.139,195.337l-31.145-17.256l53.893-29.86c4.83-2.676,6.576-8.761,3.9-13.59c-2.675-4.831-8.762-6.575-13.59-3.9
	l-64.832,35.92L54.627,133L256,21.427z M43.995,149.968l61.643,34.154v57.66c0,3.647,1.987,7.005,5.184,8.762l51.858,28.493
	c1.501,0.824,3.158,1.235,4.814,1.235c1.762,0,3.522-0.466,5.09-1.394c3.041-1.8,4.908-5.07,4.908-8.604v-46.342l68.509,37.958
	v223.144L43.995,373.111V149.968z"/>
<path d="M478.001,245.947c-2.629,0-5.209,1.07-7.068,2.929c-1.86,1.86-2.929,4.439-2.929,7.068c0,2.629,1.07,5.209,2.929,7.067
	c1.86,1.86,4.439,2.93,7.068,2.93s5.209-1.07,7.068-2.93c1.86-1.859,2.929-4.438,2.929-7.067c0-2.629-1.07-5.209-2.929-7.068
	C483.21,247.016,480.63,245.947,478.001,245.947z"/>
<path d="M222.043,128.975c2.629,0,5.209-1.07,7.068-2.929c1.86-1.86,2.929-4.439,2.929-7.068c0-2.629-1.07-5.209-2.929-7.068
	s-4.439-2.929-7.068-2.929c-2.639,0-5.219,1.07-7.078,2.929s-2.929,4.439-2.929,7.068c0,2.629,1.07,5.209,2.929,7.068
	S219.403,128.975,222.043,128.975z"/>
<path d="M109.326,359.012l-29.185-16.035c-4.837-2.656-10.917-0.891-13.577,3.948c-2.659,4.84-0.892,10.917,3.948,13.577
	l29.185,16.035c1.528,0.839,3.177,1.237,4.806,1.237c3.529,0,6.951-1.874,8.771-5.186
	C115.932,367.749,114.164,361.672,109.326,359.012z"/>
<path d="M378.536,254.411c-2.025-2.63-5.218-4.085-8.536-3.881c-3.313,0.204-6.309,2.039-7.997,4.897l-27.946,47.35
	c-0.058,0.099-0.114,0.197-0.168,0.297c-6.203,10.118-9.478,21.53-9.478,33.045c0,14.992,5.791,28.446,15.888,36.912
	c7.05,5.911,15.65,9.002,24.762,9.002c2.402,0,4.842-0.216,7.296-0.65c24.93-4.416,44.458-30.335,44.458-59.007
	c0-11.98-3.606-23.128-10.159-31.423c-0.014-0.018-0.027-0.036-0.042-0.054L378.536,254.411z M368.87,361.693
	c-5.926,1.049-11.363-0.329-15.724-3.985c-5.554-4.656-8.739-12.525-8.739-21.59c0-7.845,2.399-15.999,6.756-22.96
	c0.146-0.233,0.281-0.471,0.406-0.712l20.139-34.123l18.923,24.59c0.082,0.111,0.166,0.222,0.253,0.33
	c3.828,4.783,5.937,11.578,5.937,19.132C396.821,341.003,384.021,359.008,368.87,361.693z"/>
<g>
</g>
<g>
</g>
<g>
</g>
<g>
</g>
<g>
</g>
<g>
</g>
<g>
</g>
<g>
</g>
<g>
</g>
<g>
</g>
<g>
</g>
<g>
</g>
<g>
</g>
<g>
</g>
<g>
</g>
</svg>
