<svg id="bong" enable-background="new 0 0 300 300" height="512" viewBox="0 0 300 300" width="512" xmlns="http://www.w3.org/2000/svg"><g><circle cx="130.641" cy="171.523" fill="#e5efef" r="92"/><g fill="#4c241d"><path d="m52.989 72.338c-2.211 0-4-1.791-4-4v-8c0-2.209 1.789-4 4-4s4 1.791 4 4v8c0 2.209-1.79 4-4 4z"/><path d="m52.989 96.338c-2.211 0-4-1.791-4-4v-8c0-2.209 1.789-4 4-4s4 1.791 4 4v8c0 2.209-1.79 4-4 4z"/><path d="m44.989 80.338h-8c-2.211 0-4-1.791-4-4s1.789-4 4-4h8c2.211 0 4 1.791 4 4s-1.79 4-4 4z"/><path d="m68.989 80.338h-8c-2.211 0-4-1.791-4-4s1.789-4 4-4h8c2.211 0 4 1.791 4 4s-1.79 4-4 4z"/><path d="m254.989 132.338c-7.719 0-14-6.281-14-14s6.281-14 14-14 14 6.281 14 14-6.282 14-14 14zm0-20c-3.309 0-6 2.691-6 6s2.691 6 6 6 6-2.691 6-6-2.692-6-6-6z"/><circle cx="91.305" cy="39.939" r="4.276"/><circle cx="223.305" cy="75.939" r="4.276"/></g><g><path d="m116.88 193.514c41.665-4.872 49.918-39.748 49.918-39.748-44.327.559-57.08 23.322-57.08 23.322 22.017-46.351 6.869-75.716 6.869-75.716s-26.703 19.462-27.794 70.764c0 0-1.198-26.064-40.574-46.431 0 0-8.253 34.876 26.81 57.905 0 0-22.763-12.752-40.015-2.103 0 0 16.799 22.39 40.201 16.879 0 0-15.601 3.674-20.553 24.6 0 0 24.413 5.777 36.34-13.498 2.023 22.576 26.437 28.354 26.437 28.354 4.952-20.926-7.348-31.202-7.348-31.202 18.45 15.415 43.502 2.928 43.502 2.928-10.649-17.252-36.713-16.054-36.713-16.054z" fill="#a9ba5a"/><path d="m117.442 241.842c-.305 0-.617-.035-.926-.107-.973-.23-21.102-5.209-27.629-23.309-13.949 13.248-34.172 8.682-35.148 8.453-1.031-.244-1.926-.889-2.48-1.791-.559-.904-.734-1.99-.488-3.023 2.145-9.074 6.133-15.248 10.223-19.412-17.324-3.227-28.59-17.955-29.18-18.744-.676-.898-.941-2.039-.73-3.145.207-1.104.871-2.068 1.828-2.66 8.074-4.986 17.066-5.477 24.793-4.352-8.059-9.475-11.625-19.309-13.152-26.945-2.461-12.312-.316-21.633-.223-22.023.281-1.197 1.102-2.199 2.223-2.713 1.113-.516 2.414-.484 3.504.082 19.961 10.324 30.602 22.135 36.273 31.668 5.957-39.229 26.891-54.945 27.902-55.682.949-.688 2.148-.93 3.277-.66 1.137.27 2.098 1.021 2.633 2.059.574 1.113 12.242 24.543-.012 62.281 9.344-5.979 24.152-11.77 46.617-12.053 1.184.049 2.406.539 3.172 1.498.77.963 1.055 2.225.77 3.424-.09.391-2.352 9.682-10.07 19.584-4.789 6.143-12.383 13.338-23.836 18.193 7.422 2.457 15.23 6.922 20.215 15.002.59.957.754 2.117.445 3.199-.309 1.08-1.059 1.98-2.062 2.482-.883.438-17.559 8.555-34.484 3.68 1.789 5.555 2.582 12.861.434 21.936-.436 1.839-2.077 3.078-3.889 3.078zm-26.438-36.354c.305 0 .613.035.922.107 1.676.396 2.91 1.82 3.062 3.535 1.285 14.328 12.984 20.926 19.344 23.475 1.926-15.316-6.637-22.754-6.805-22.896-.004 0-.004 0-.004 0-1.695-1.418-1.918-3.939-.504-5.635 1.418-1.695 3.938-1.922 5.637-.506 11.812 9.879 27.031 6.73 34.539 4.234-10.562-11.037-29.898-10.299-30.133-10.293-2.129.043-3.996-1.523-4.172-3.672-.172-2.146 1.383-4.047 3.523-4.297 29.219-3.416 40.742-22.275 44.699-31.57-36.539 2.186-47.449 20.289-47.918 21.096-1.078 1.863-3.441 2.549-5.332 1.549-1.898-.998-2.68-3.305-1.758-5.244 15.703-33.062 11.816-56.992 8.84-66.99-7.133 7.652-21.379 27.426-22.152 63.84-.047 2.158-1.793 3.889-3.949 3.916-2.359.041-3.949-1.662-4.047-3.816-.055-.904-1.699-21.979-33.383-40.309-.629 10.074 1.219 32.104 25.809 48.254 1.801 1.182 2.34 3.572 1.223 5.414s-3.5 2.465-5.367 1.422c-.191-.104-17.18-9.389-31.535-4.307 5.625 5.594 17.832 15.213 32.754 11.699 2.137-.52 4.305.824 4.812 2.977.504 2.15-.828 4.303-2.977 4.809-.48.123-11.262 3.016-16.348 17.418 6.816.572 20.242-.08 27.816-12.314.744-1.197 2.041-1.896 3.404-1.896z" fill="#4c241d"/></g><path d="m81.926 251.851c-.305 0-.617-.035-.926-.107-2.148-.51-3.48-2.664-2.969-4.814l9.082-38.363c.504-2.148 2.664-3.477 4.812-2.971 2.148.51 3.48 2.664 2.969 4.814l-9.082 38.363c-.433 1.84-2.074 3.078-3.886 3.078z" fill="#4c241d"/><g><path d="m212.373 145.568h23.077v55.385h-23.077z" fill="#fff" transform="matrix(-.707 -.707 .707 -.707 259.727 454.104)"/><path d="m212.489 205.002c-1.062 0-2.078-.422-2.828-1.172l-16.316-16.318c-1.562-1.562-1.562-4.094 0-5.656l39.16-39.162c1.562-1.562 4.094-1.562 5.656 0l16.32 16.316c.75.75 1.172 1.768 1.172 2.828s-.422 2.078-1.172 2.828l-39.164 39.164c-.75.75-1.766 1.172-2.828 1.172zm-10.661-20.319 10.66 10.662 33.508-33.508-10.664-10.66z" fill="#4c241d"/></g><g><path d="m196.989 161.076v-76.738h-28v76.185c-21.768 5.724-37.846 25.481-37.846 49.046 0 2.27.201 4.488.489 6.678l17.423-8.712c8.902-4.451 19.506-3.791 27.787 1.73 8.761 5.841 20.074 6.216 29.203.97l9.855-5.664c4.963-2.852 10.567-3.984 16.06-3.538-3.212-18.965-16.935-34.355-34.971-39.957z" fill="#fff"/><path d="m131.633 220.248c-.645 0-1.289-.156-1.875-.467-1.145-.605-1.922-1.729-2.09-3.01-.359-2.725-.527-5.012-.527-7.203 0-23.795 15.41-44.766 37.848-52.039v-73.191c0-2.209 1.789-4 4-4h28c2.211 0 4 1.791 4 4v73.879c18.109 6.752 31.672 22.998 34.918 42.148.203 1.217-.164 2.461-.996 3.371-.832.908-2.008 1.402-3.273 1.283-4.852-.402-9.617.65-13.746 3.021l-9.855 5.662c-10.516 6.041-23.316 5.621-33.414-1.109-7.059-4.709-16.172-5.279-23.777-1.48l-17.422 8.713c-.564.281-1.178.422-1.791.422zm41.356-131.91v72.186c0 1.818-1.227 3.406-2.984 3.869-20.527 5.396-34.863 23.973-34.863 45.176 0 .15 0 .301.004.451l12.121-6.062c10.16-5.076 22.344-4.322 31.793 1.98 7.547 5.033 17.125 5.355 24.992.828l9.855-5.662c4.012-2.305 8.453-3.676 13.066-4.057-4.223-15.102-16.043-27.451-31.172-32.15-1.672-.52-2.812-2.068-2.812-3.82v-72.739z" fill="#4c241d"/></g><g><path d="m215.9 204.571-9.855 5.664c-9.129 5.247-20.442 4.871-29.203-.97-8.281-5.521-18.885-6.181-27.787-1.73l-17.423 8.712c3.277 24.875 24.51 44.091 50.28 44.091 28.039 0 50.769-22.73 50.769-50.769 0-2.91-.251-5.76-.721-8.535-5.493-.447-11.097.685-16.06 3.537z" fill="#efefd2"/><path d="m181.91 264.338c-27.352 0-50.672-20.449-54.242-47.566-.223-1.691.648-3.338 2.176-4.102l17.422-8.713c10.16-5.076 22.344-4.322 31.793 1.98 7.547 5.033 17.125 5.355 24.992.828l9.855-5.662c5.535-3.18 11.895-4.57 18.379-4.057 1.824.146 3.316 1.516 3.621 3.32.512 3.043.773 6.139.773 9.201.001 30.2-24.569 54.771-54.769 54.771zm-45.859-45.828c4.219 21.754 23.453 37.828 45.859 37.828 25.789 0 46.77-20.98 46.77-46.77 0-1.527-.074-3.066-.227-4.602-3.742.182-7.344 1.223-10.562 3.074l-9.855 5.662c-10.516 6.041-23.316 5.621-33.414-1.109-7.059-4.709-16.172-5.279-23.777-1.48zm79.848-13.938h.039z" fill="#4c241d"/></g></g></svg>